<svg width="24" height="24" viewBox="0 0 24 24" fill="none" xmlns="http://www.w3.org/2000/svg">
<path d="M22.5 8.09985L20 9.47485L17.5 11.8499V19.9999H21C21.8285 19.9999 22.5 19.3284 22.5 18.4999V8.09985Z" fill="#475467"/>
<path d="M1.5 8.09985L3.307 8.95485L6.5 11.8499V19.9999H3C2.1715 19.9999 1.5 19.3284 1.5 18.4999V8.09985Z" fill="#475467"/>
<path d="M17.5 5.59985L12 9.72485L6.5 5.59985L6 8.49985L6.5 11.8499L12 15.9749L17.5 11.8499L18 8.49985L17.5 5.59985Z" fill="#475467"/>
<path d="M1.5 6.14876V8.09976L6.5 11.8498V5.59976L4.938 4.42926C4.566 4.15026 4.114 3.99976 3.649 3.99976C2.462 3.99976 1.5 4.96176 1.5 6.14876Z" fill="#475467"/>
<path d="M22.5 6.14876V8.09976L17.5 11.8498V5.59976L19.062 4.42926C19.434 4.15026 19.886 3.99976 20.351 3.99976C21.538 3.99976 22.5 4.96176 22.5 6.14876Z" fill="#475467"/>
</svg>
