<svg width="16" height="18" viewBox="0 0 16 18" fill="none" xmlns="http://www.w3.org/2000/svg">
<path d="M11.3333 13.1667L5.49992 13.1667" stroke="#475467" stroke-width="1.25" stroke-linecap="round" stroke-linejoin="round"/>
<path d="M11.3333 9.83325L8.83325 9.83325" stroke="#475467" stroke-width="1.25" stroke-linecap="round" stroke-linejoin="round"/>
<path d="M15.0833 10.6666C15.0833 13.8093 15.0833 15.3806 14.0459 16.3569C13.0086 17.3333 11.339 17.3333 7.99992 17.3333H7.35598C4.63831 17.3333 3.27947 17.3333 2.33581 16.6684C2.06543 16.4779 1.8254 16.252 1.623 15.9975C0.916585 15.1094 0.916585 13.8305 0.916585 11.2726V9.15143C0.916585 6.68212 0.916585 5.44747 1.30737 4.46138C1.9356 2.8761 3.2642 1.62566 4.94855 1.03438C5.99627 0.666586 7.3081 0.666586 9.93174 0.666586C11.431 0.666586 12.1806 0.666586 12.7793 0.876753C13.7418 1.21463 14.501 1.92917 14.8599 2.83504C15.0833 3.39852 15.0833 4.10404 15.0833 5.51507V10.6666Z" stroke="#475467" stroke-width="1.25" stroke-linejoin="round"/>
<path d="M0.916423 9C0.916423 7.46588 2.16008 6.22222 3.6942 6.22222C4.24902 6.22222 4.90312 6.31944 5.44256 6.1749C5.92185 6.04647 6.29623 5.6721 6.42465 5.1928C6.5692 4.65336 6.47198 3.99926 6.47198 3.44444C6.47198 1.91032 7.71563 0.666667 9.24976 0.666667" stroke="#475467" stroke-width="1.25" stroke-linecap="round" stroke-linejoin="round"/>
</svg>
