<svg width="16" height="16" viewBox="0 0 16 16" fill="none" xmlns="http://www.w3.org/2000/svg">
<path d="M6.584 9.41252L14.7516 1.24795M6.81617 9.77968L8.66817 13.4838C9.11575 14.3789 9.3395 14.8264 9.62142 14.9464C9.86609 15.0506 10.1458 15.0317 10.3743 14.8957C10.6375 14.7389 10.7992 14.2654 11.1226 13.3183L14.6218 3.07038C14.9037 2.24518 15.0445 1.83257 14.9481 1.55962C14.8642 1.32217 14.6774 1.13538 14.44 1.05149C14.167 0.955058 13.7544 1.09595 12.9292 1.37773L2.68128 4.87702C1.7342 5.20041 1.26066 5.36211 1.1039 5.62537C0.967861 5.85383 0.949011 6.13349 1.05316 6.3781C1.17318 6.66002 1.62074 6.88385 2.51585 7.33135L6.21989 9.18343C6.36742 9.25718 6.44117 9.29402 6.505 9.34327C6.56175 9.38702 6.61259 9.43785 6.65625 9.49452C6.70559 9.55843 6.74242 9.63218 6.81617 9.77968Z" stroke="#FAFAFA" stroke-width="1.66667" stroke-linecap="round" stroke-linejoin="round"/>
</svg>
